<svg width="139" height="44" viewBox="0 0 139 44" fill="none" xmlns="http://www.w3.org/2000/svg">
<path d="M21.71 20.16H25.88V22.71H26.09C26.31 22.15 26.77 21.52 27.47 20.82C28.17 20.12 29.19 19.77 30.53 19.77C31.57 19.77 32.44 20.01 33.14 20.49C33.84 20.97 34.35 21.48 34.67 22.02C35.01 22.54 35.21 22.92 35.27 23.16H35.48C35.72 22.52 36.22 21.8 36.98 21C37.74 20.18 38.91 19.77 40.49 19.77C41.87 19.77 42.96 20.13 43.76 20.85C44.58 21.55 45.15 22.4 45.47 23.4C45.81 24.38 45.98 25.33 45.98 26.25V36H41.81V26.67C41.81 25.59 41.53 24.77 40.97 24.21C40.41 23.65 39.73 23.37 38.93 23.37C38.11 23.37 37.4 23.66 36.8 24.24C36.22 24.82 35.93 25.63 35.93 26.67V36H31.76V26.67C31.76 25.59 31.48 24.77 30.92 24.21C30.36 23.65 29.68 23.37 28.88 23.37C28.06 23.37 27.35 23.66 26.75 24.24C26.17 24.82 25.88 25.63 25.88 26.67V36H21.71V20.16ZM54.9763 36.24C53.0163 36.24 51.4863 35.49 50.3863 33.99C49.2863 32.49 48.7363 30.51 48.7363 28.05C48.7363 25.55 49.2863 23.55 50.3863 22.05C51.5063 20.53 53.0663 19.77 55.0663 19.77C56.4063 19.77 57.4563 20.08 58.2163 20.7C58.9763 21.3 59.5163 21.94 59.8363 22.62H60.0763V20.16H64.2463V36H60.0763V33.27H59.8363C59.4763 34.01 58.9163 34.69 58.1563 35.31C57.3963 35.93 56.3363 36.24 54.9763 36.24ZM56.5063 32.88C57.6863 32.88 58.5763 32.4 59.1763 31.44C59.7763 30.48 60.0763 29.33 60.0763 27.99C60.0763 26.65 59.7763 25.51 59.1763 24.57C58.5963 23.63 57.7063 23.16 56.5063 23.16C55.3063 23.16 54.4163 23.63 53.8363 24.57C53.2563 25.51 52.9663 26.65 52.9663 27.99C52.9663 29.35 53.2563 30.51 53.8363 31.47C54.4163 32.41 55.3063 32.88 56.5063 32.88ZM67.8819 20.16H72.0819V22.59H72.2919C72.6519 21.81 73.2319 21.15 74.0319 20.61C74.8319 20.05 75.8019 19.77 76.9419 19.77C79.0019 19.77 80.4519 20.43 81.2919 21.75C82.1519 23.07 82.5819 24.57 82.5819 26.25V36H78.4419V26.94C78.4419 25.78 78.1619 24.87 77.6019 24.21C77.0619 23.55 76.2919 23.22 75.2919 23.22C74.2319 23.22 73.4319 23.57 72.8919 24.27C72.3519 24.95 72.0819 25.84 72.0819 26.94V36H67.8819V20.16ZM91.568 36.24C89.608 36.24 88.078 35.49 86.978 33.99C85.878 32.49 85.328 30.51 85.328 28.05C85.328 25.55 85.878 23.55 86.978 22.05C88.098 20.53 89.658 19.77 91.658 19.77C92.998 19.77 94.048 20.08 94.808 20.7C95.568 21.3 96.108 21.94 96.428 22.62H96.668V20.16H100.838V36H96.668V33.27H96.428C96.068 34.01 95.508 34.69 94.748 35.31C93.988 35.93 92.928 36.24 91.568 36.24ZM93.098 32.88C94.278 32.88 95.168 32.4 95.768 31.44C96.368 30.48 96.668 29.33 96.668 27.99C96.668 26.65 96.368 25.51 95.768 24.57C95.188 23.63 94.298 23.16 93.098 23.16C91.898 23.16 91.008 23.63 90.428 24.57C89.848 25.51 89.558 26.65 89.558 27.99C89.558 29.35 89.848 30.51 90.428 31.47C91.008 32.41 91.898 32.88 93.098 32.88ZM112.152 42.66C111.412 42.66 110.852 42.61 110.472 42.51C110.092 42.43 109.712 42.32 109.332 42.18V38.85C109.532 38.91 109.852 38.97 110.292 39.03C110.752 39.11 111.192 39.15 111.612 39.15C113.012 39.15 113.992 38.75 114.552 37.95C115.132 37.17 115.422 36.19 115.422 35.01V32.91H115.182C114.862 33.63 114.302 34.3 113.502 34.92C112.702 35.54 111.642 35.85 110.322 35.85C109.042 35.85 107.932 35.52 106.992 34.86C106.052 34.18 105.332 33.24 104.832 32.04C104.332 30.82 104.082 29.42 104.082 27.84C104.082 26.22 104.332 24.81 104.832 23.61C105.332 22.39 106.052 21.45 106.992 20.79C107.952 20.11 109.072 19.77 110.352 19.77C111.692 19.77 112.762 20.1 113.562 20.76C114.362 21.4 114.902 22.08 115.182 22.8H115.422V20.16H119.592V35.01C119.592 36.03 119.402 37.11 119.022 38.25C118.662 39.41 117.932 40.43 116.832 41.31C115.732 42.21 114.172 42.66 112.152 42.66ZM111.882 32.49C113.042 32.49 113.922 32.02 114.522 31.08C115.122 30.14 115.422 29.04 115.422 27.78C115.422 26.54 115.122 25.46 114.522 24.54C113.942 23.6 113.062 23.13 111.882 23.13C110.702 23.13 109.812 23.6 109.212 24.54C108.612 25.46 108.312 26.54 108.312 27.78C108.312 29.04 108.602 30.14 109.182 31.08C109.782 32.02 110.682 32.49 111.882 32.49ZM130.479 36.24C128.819 36.24 127.419 35.86 126.279 35.1C125.139 34.32 124.289 33.31 123.729 32.07C123.189 30.81 122.919 29.46 122.919 28.02C122.919 26.58 123.189 25.24 123.729 24C124.289 22.74 125.139 21.72 126.279 20.94C127.419 20.16 128.829 19.77 130.509 19.77C132.729 19.77 134.489 20.48 135.789 21.9C137.109 23.32 137.769 25.37 137.769 28.05V29.19H126.909V29.43C126.909 30.39 127.239 31.22 127.899 31.92C128.559 32.6 129.389 32.94 130.389 32.94C131.169 32.94 131.829 32.76 132.369 32.4C132.909 32.04 133.299 31.55 133.539 30.93H137.619C137.199 32.49 136.379 33.77 135.159 34.77C133.939 35.75 132.379 36.24 130.479 36.24ZM133.779 26.49C133.739 25.23 133.419 24.3 132.819 23.7C132.219 23.1 131.429 22.8 130.449 22.8C129.409 22.8 128.589 23.13 127.989 23.79C127.389 24.45 127.069 25.35 127.029 26.49H133.779Z" fill="white"/>
<circle cx="13" cy="23" r="3" fill="#F23F3F"/>
<circle cx="3" cy="23" r="3" fill="#F23F3F" fill-opacity="0.75"/>
<circle cx="3" cy="33" r="3" fill="#F23F3F" fill-opacity="0.5"/>
<circle cx="13" cy="33" r="3" fill="#F23F3F" fill-opacity="0.25"/>
</svg>
